
<svg width="54" height="44" viewBox="0 0 54 44" fill="none" xmlns="http://www.w3.org/2000/svg">
<path d="M37.7944 14.1739C37.7944 20.3522 32.8257 25.3478 26.7123 25.3478C20.5988 25.3478 15.6301 20.3522 15.6301 14.1739C15.6301 7.99559 20.5988 3 26.7123 3C32.8257 3 37.7944 7.99559 37.7944 14.1739Z" fill="#AAE7FF" stroke="#19BCFE" stroke-width="2"/>
<path d="M29.1643 29.826C29.1643 36.0043 24.1955 40.9999 18.0821 40.9999C11.9687 40.9999 6.99994 36.0043 6.99994 29.826C6.99994 23.6477 11.9687 18.6521 18.0821 18.6521C24.1955 18.6521 29.1643 23.6477 29.1643 29.826Z" fill="#19BCFE" fill-opacity="0.1" stroke="#19BCFE" stroke-width="2"/>
<path d="M46.9999 29.826C46.9999 36.0043 42.0311 40.9999 35.9177 40.9999C29.8043 40.9999 24.8355 36.0043 24.8355 29.826C24.8355 23.6477 29.8043 18.6521 35.9177 18.6521C42.0311 18.6521 46.9999 23.6477 46.9999 29.826Z" stroke="#19BCFE" stroke-width="2"/>
</svg>
