
<svg width="20" height="16" viewBox="0 0 20 16" fill="none" xmlns="http://www.w3.org/2000/svg">
<g clip-path="url(#clip0)">
<path fill-rule="evenodd" clip-rule="evenodd" d="M4.15407 0.0338745C3.01288 0.0338745 2.16847 1.03269 2.20627 2.11591C2.24254 3.15659 2.19542 4.50438 1.8561 5.60354C1.51576 6.70591 0.94017 7.40421 0 7.49387V8.50608C0.94017 8.59574 1.51576 9.29404 1.8561 10.3964C2.19542 11.4956 2.24254 12.8434 2.20627 13.884C2.16847 14.9671 3.01288 15.9661 4.15424 15.9661H15.8475C16.9886 15.9661 17.8329 14.9673 17.7951 13.884C17.7588 12.8434 17.8059 11.4956 18.1453 10.3964C18.4858 9.29404 19.0598 8.59574 20 8.50608V7.49387C19.0598 7.40421 18.4858 6.70591 18.1453 5.60354C17.8059 4.50455 17.7588 3.15659 17.7951 2.11591C17.8329 1.03286 16.9886 0.0338745 15.8475 0.0338745H4.1539H4.15407ZM13.5593 9.84116C13.5593 11.3327 12.4468 12.2373 10.6005 12.2373H7.45763C7.36772 12.2373 7.2815 12.2016 7.21793 12.138C7.15436 12.0744 7.11864 11.9882 7.11864 11.8983V4.10167C7.11864 4.01177 7.15436 3.92555 7.21793 3.86197C7.2815 3.7984 7.36772 3.76269 7.45763 3.76269H10.5825C12.122 3.76269 13.1324 4.59659 13.1324 5.87693C13.1324 6.77557 12.4527 7.58015 11.5868 7.72099V7.76794C12.7656 7.89726 13.5593 8.71354 13.5593 9.84116ZM10.2578 4.83726H8.46576V7.36845H9.97509C11.1419 7.36845 11.7853 6.89862 11.7853 6.05879C11.7853 5.27184 11.232 4.83726 10.2578 4.83726ZM8.46576 8.37286V11.1623H10.3237C11.5385 11.1623 12.182 10.6749 12.182 9.75879C12.182 8.84252 11.5205 8.37269 10.2456 8.37269H8.46576V8.37286Z" fill="#7000FE"/>
</g>
<defs>
<clipPath id="clip0">
<rect width="20" height="16" fill="white"/>
</clipPath>
</defs>
</svg>
